<?xml version="1.0"?>
<svg xmlns="http://www.w3.org/2000/svg" xmlns:xlink="http://www.w3.org/1999/xlink" xmlns:svgjs="http://svgjs.com/svgjs" version="1.1" width="512" height="512" x="0" y="0" viewBox="0 0 36 36" style="enable-background:new 0 0 512 512" xml:space="preserve" class=""><g><g xmlns="http://www.w3.org/2000/svg"><path d="m8.377 31.833c6.917 0 11.667 3.583 15 3.583s10.333-1.916 10.333-17.249-9.417-17.584-13.083-17.584c-17.167 0-24.5 31.25-12.25 31.25z" fill="#efefef" data-original="#efefef" style=""/></g><g xmlns="http://www.w3.org/2000/svg"><path d="m26.467 1.467h1v2h-1z" fill="#a4afc1" transform="matrix(.707 -.707 .707 .707 6.157 19.795)" data-original="#a4afc1" style=""/></g><g xmlns="http://www.w3.org/2000/svg"><path d="m30.533 5.533h1v2h-1z" fill="#a4afc1" transform="matrix(.707 -.707 .707 .707 4.473 23.862)" data-original="#a4afc1" style=""/></g><g xmlns="http://www.w3.org/2000/svg"><path d="m29.856 1.967h2v1h-2z" fill="#a4afc1" transform="matrix(.707 -.707 .707 .707 7.293 22.541)" data-original="#a4afc1" style=""/></g><g xmlns="http://www.w3.org/2000/svg"><path d="m27.25 28.25h-18.5c-1.105 0-2-.895-2-2v-15h22.5v15c0 1.105-.895 2-2 2z" fill="#f3f3f1" data-original="#f3f3f1" style="" class=""/></g><g xmlns="http://www.w3.org/2000/svg"><path d="m29.25 11.25h-22.5v-1.5c0-1.105.895-2 2-2h18.5c1.105 0 2 .895 2 2z" fill="#ff1949" data-original="#2fdf84" style="" class=""/></g><g xmlns="http://www.w3.org/2000/svg"><circle cx="13" cy="17" fill="#ff1949" r="1.25" data-original="#2fdf84" style="" class=""/></g><g xmlns="http://www.w3.org/2000/svg"><circle cx="23" cy="17" fill="#ff1949" r="1.25" data-original="#2fdf84" style="" class=""/></g><g xmlns="http://www.w3.org/2000/svg"><path d="m11 7.75h-2.25c-1.105 0-2 .895-2 2v1.5h2.25v-1.5c0-1.105.895-2 2-2z" fill="#ff1949" data-original="#00b871" style="" class=""/></g><g xmlns="http://www.w3.org/2000/svg"><path d="m14 17c0-.19.049-.365.125-.526-.2-.425-.625-.724-1.125-.724-.69 0-1.25.56-1.25 1.25s.56 1.25 1.25 1.25c.5 0 .925-.299 1.125-.724-.076-.161-.125-.336-.125-.526z" fill="#ff1949" data-original="#00b871" style="" class=""/></g><g xmlns="http://www.w3.org/2000/svg"><path d="m24 17c0-.19.049-.365.125-.526-.2-.425-.625-.724-1.125-.724-.69 0-1.25.56-1.25 1.25s.56 1.25 1.25 1.25c.5 0 .925-.299 1.125-.724-.076-.161-.125-.336-.125-.526z" fill="#ff1949" data-original="#00b871" style="" class=""/></g><g xmlns="http://www.w3.org/2000/svg"><path d="m9 26.25v-15h-2.25v15c0 1.105.895 2 2 2h2.25c-1.105 0-2-.895-2-2z" fill="#d5dbe1" data-original="#d5dbe1" style=""/></g><g xmlns="http://www.w3.org/2000/svg"><path d="m13 19c-1.103 0-2-.897-2-2s.897-2 2-2 2 .897 2 2-.897 2-2 2zm0-2.5c-.276 0-.5.225-.5.5s.224.5.5.5.5-.225.5-.5-.224-.5-.5-.5z" fill="#000000" data-original="#000000" style=""/></g><g xmlns="http://www.w3.org/2000/svg"><path d="m23 19c-1.103 0-2-.897-2-2s.897-2 2-2 2 .897 2 2-.897 2-2 2zm0-2.5c-.276 0-.5.225-.5.5s.224.5.5.5.5-.225.5-.5-.224-.5-.5-.5z" fill="#000000" data-original="#000000" style=""/></g><g xmlns="http://www.w3.org/2000/svg"><path d="m23.303 26.061-.53-.53c-2.632-2.631-6.914-2.631-9.546 0l-.53.53-1.061-1.061.53-.53c3.217-3.217 8.45-3.217 11.667 0l.53.53z" fill="#000000" data-original="#000000" style=""/></g><g xmlns="http://www.w3.org/2000/svg"><path d="m27.25 29h-18.5c-1.517 0-2.75-1.233-2.75-2.75v-16.5c0-1.517 1.233-2.75 2.75-2.75h18.5c1.517 0 2.75 1.233 2.75 2.75v16.5c0 1.517-1.233 2.75-2.75 2.75zm-18.5-20.5c-.689 0-1.25.561-1.25 1.25v16.5c0 .689.561 1.25 1.25 1.25h18.5c.689 0 1.25-.561 1.25-1.25v-16.5c0-.689-.561-1.25-1.25-1.25z" fill="#000000" data-original="#000000" style=""/></g><g xmlns="http://www.w3.org/2000/svg"><path d="m6.75 10.5h22.5v1.5h-22.5z" fill="#000000" data-original="#000000" style=""/></g><g xmlns="http://www.w3.org/2000/svg"><path d="m2 27.5h32v1.5h-32z" fill="#000000" data-original="#000000" style=""/></g></g></svg>
